<svg xmlns="http://www.w3.org/2000/svg" viewBox="0 0 60.74 14.39"><defs><style>.cls-1{fill:#5797ff;stroke-width:1.3px;}.cls-1,.cls-4,.cls-5{stroke:#000;stroke-miterlimit:10;}.cls-2{fill:#fff;}.cls-3{fill:#ffe12e;}.cls-4,.cls-5{fill:none;stroke-linecap:round;}.cls-4{stroke-width:0.75px;}.cls-5{stroke-width:0.25px;}</style></defs><g id="레이어_2" data-name="레이어 2"><g id="레이어_1-2" data-name="레이어 1"><circle class="cls-1" cx="27.21" cy="4.46" r="2.63"/><circle class="cls-2" cx="26.98" cy="3.65" r="0.77"/><path class="cls-3" d="M26.64,1.19,24.77,2.93,23,1.06A2.56,2.56,0,0,1,26.33.91,2.7,2.7,0,0,1,26.64,1.19Z"/><path class="cls-3" d="M24.71,3l-.39,2.41a3.64,3.64,0,0,1-1.68-1h0Z"/><path class="cls-4" d="M24.36,5.38h0a3.64,3.64,0,0,1-1.68-1"/><polyline class="cls-4" points="24.75 2.93 24.71 2.96 22.64 4.35"/><path class="cls-4" d="M23,1.06A2.56,2.56,0,0,1,26.33.91a2.7,2.7,0,0,1,.31.28L24.77,2.93"/><polyline class="cls-4" points="24.72 2.94 24.71 2.96 24.32 5.37 24.32 5.38"/><line class="cls-4" x1="23.02" y1="1.06" x2="24.77" y2="2.93"/><path class="cls-5" d="M26.62,3.38s.65-.63.72.27"/><path d="M0,2.14a.42.42,0,0,1,.08-.29.42.42,0,0,1,.3-.08l8.17-.14a.54.54,0,0,1,.32.08A.32.32,0,0,1,8.93,2l-.2,6.92a.4.4,0,0,1-.1.28.44.44,0,0,1-.31.09h-1a.38.38,0,0,1-.3-.09A.37.37,0,0,1,7,8.92l0-2L.62,7a.43.43,0,0,1-.3-.08.39.39,0,0,1-.09-.29V5.8a.39.39,0,0,1,.09-.29.43.43,0,0,1,.3-.08l6.49-.11,0-2.07L.38,3.36a.47.47,0,0,1-.3-.08A.46.46,0,0,1,0,3Zm3.13,8.4V8.39a.41.41,0,0,1,.08-.28A.41.41,0,0,1,3.51,8h1a.43.43,0,0,1,.31.09.41.41,0,0,1,.08.28v2.12l3.81-.07a.38.38,0,0,1,.27.07A.38.38,0,0,1,9,10.8v.85a.46.46,0,0,1-.08.31.34.34,0,0,1-.25.07l-8.24.14a.34.34,0,0,1-.25-.08.44.44,0,0,1-.08-.31v-.85a.42.42,0,0,1,.08-.29.45.45,0,0,1,.27-.06Z"/><path d="M14.7,8.78a4.39,4.39,0,0,1-1.63-.29,3.41,3.41,0,0,1-1.23-.8,3.35,3.35,0,0,1-.77-1.18,3.77,3.77,0,0,1-.27-1.44,3.93,3.93,0,0,1,.27-1.45,3.45,3.45,0,0,1,.77-1.18,3.67,3.67,0,0,1,1.23-.79,4.58,4.58,0,0,1,3.26,0,3.82,3.82,0,0,1,1.24.79,3.45,3.45,0,0,1,.77,1.18,3.93,3.93,0,0,1,.27,1.45,3.77,3.77,0,0,1-.27,1.44,3.35,3.35,0,0,1-.77,1.18,3.54,3.54,0,0,1-1.24.8A4.42,4.42,0,0,1,14.7,8.78Zm0-1.59A2.46,2.46,0,0,0,15.64,7a2,2,0,0,0,.68-.45,2.11,2.11,0,0,0,.42-.67,2.49,2.49,0,0,0,.14-.83,2.45,2.45,0,0,0-.14-.83,2.16,2.16,0,0,0-.42-.68,2,2,0,0,0-.68-.45,2.81,2.81,0,0,0-1.87,0,2,2,0,0,0-.68.45,2.16,2.16,0,0,0-.42.68,2.54,2.54,0,0,0-.14.83,2.49,2.49,0,0,0,.14.83,2.11,2.11,0,0,0,.42.67,2,2,0,0,0,.68.45A2.45,2.45,0,0,0,14.7,7.19ZM14,14.12a.41.41,0,0,1-.3-.09.41.41,0,0,1-.08-.28V10a.44.44,0,0,1,.08-.29.47.47,0,0,1,.3-.08h1a.48.48,0,0,1,.31.08.44.44,0,0,1,.08.29V12.5l6-.11a.4.4,0,0,1,.27.07s.07.14.07.28v.88c0,.15,0,.25-.07.29s-.13.07-.26.07ZM20.23,2a.44.44,0,0,1,.08-.29.47.47,0,0,1,.3-.08h1a.48.48,0,0,1,.31.08A.44.44,0,0,1,22,2V9.16a.42.42,0,0,1-.08.29.43.43,0,0,1-.31.08h-1a.31.31,0,0,1-.38-.37Z"/><path d="M30.91,14.39a4.88,4.88,0,0,1-1.57-.22,3.45,3.45,0,0,1-1.11-.61,2.37,2.37,0,0,1-.65-.87,2.63,2.63,0,0,1,0-2.06,2.37,2.37,0,0,1,.65-.87,3.26,3.26,0,0,1,1.11-.6,4.6,4.6,0,0,1,1.57-.23,4.68,4.68,0,0,1,1.57.23,3.3,3.3,0,0,1,1.1.6,2.26,2.26,0,0,1,.65.87,2.52,2.52,0,0,1,0,2.06,2.26,2.26,0,0,1-.65.87,3.5,3.5,0,0,1-1.1.61A5,5,0,0,1,30.91,14.39Z"/><path class="cls-2" d="M30.91,12.9a2.1,2.1,0,0,0,1.33-.35,1.11,1.11,0,0,0,.44-.89,1.08,1.08,0,0,0-.44-.88,2,2,0,0,0-1.33-.35,2.07,2.07,0,0,0-1.34.35,1.07,1.07,0,0,0-.43.88,1.1,1.1,0,0,0,.43.89A2.13,2.13,0,0,0,30.91,12.9Z"/><path d="M34.58,5.65l-1.39,0V7.79a.39.39,0,0,1-.09.29.43.43,0,0,1-.3.08h-1a.43.43,0,0,1-.3-.08.39.39,0,0,1-.08-.29V2.14a.37.37,0,0,1,.08-.29c.05-.06.15-.08.3-.08h1c.15,0,.25,0,.3.08a.37.37,0,0,1,.09.29V4.08l1.39,0V2a.39.39,0,0,1,.09-.29.43.43,0,0,1,.3-.08h1a.43.43,0,0,1,.3.08.39.39,0,0,1,.08.29V7.65a.37.37,0,0,1-.08.29c0,.06-.15.08-.3.08H35c-.15,0-.25,0-.3-.08a.37.37,0,0,1-.09-.29Z"/><path d="M46.76,8.75a.38.38,0,0,1,.27.07.41.41,0,0,1,.07.29V10a.47.47,0,0,1-.07.31.37.37,0,0,1-.26.07l-3.39.06V13a.41.41,0,0,1-.08.28.41.41,0,0,1-.3.09H42a.38.38,0,0,1-.3-.09.36.36,0,0,1-.09-.28V10.43l-3.39.05A.3.3,0,0,1,38,10.4a.43.43,0,0,1-.08-.3V9.25A.38.38,0,0,1,38,9a.38.38,0,0,1,.27-.07Zm-8.2-.9a.41.41,0,0,1-.3-.09.42.42,0,0,1-.08-.29l-.1-5.33a.37.37,0,0,1,.09-.29c0-.06.15-.08.3-.08l8-.14a.5.5,0,0,1,.31.08.35.35,0,0,1,.07.29l-.19,5.34a.46.46,0,0,1-.09.28.47.47,0,0,1-.29.09Zm1.32-1.61L45,6.14l.1-2.89-5.27.09Z"/><path d="M52.7,6.47a1.27,1.27,0,0,0,0,.39,1.74,1.74,0,0,0,.17.33l2,3.41a.28.28,0,0,1-.09.43l-.86.58a.28.28,0,0,1-.43-.1L51.84,8.64l-1.8,3c-.06.1-.11.16-.17.18a.37.37,0,0,1-.26-.09l-.86-.57a.26.26,0,0,1-.08-.41l2.08-3.61c.07-.13.13-.24.17-.33a1.27,1.27,0,0,0,0-.39V2a.44.44,0,0,1,.08-.29.48.48,0,0,1,.31-.08h1a.47.47,0,0,1,.3.08A.44.44,0,0,1,52.7,2Zm6.31.8-1.4,0v3.78a.37.37,0,0,1-.08.29c-.05.06-.15.08-.3.08h-1c-.15,0-.25,0-.3-.08a.37.37,0,0,1-.09-.29V2.27A.4.4,0,0,1,56,2a.43.43,0,0,1,.3-.08h1a.43.43,0,0,1,.3.08.4.4,0,0,1,.08.29V5.7l1.4,0V2.14a.37.37,0,0,1,.09-.29c0-.06.15-.08.3-.08h1c.15,0,.25,0,.3.08a.37.37,0,0,1,.08.29V11a.4.4,0,0,1-.08.29.43.43,0,0,1-.3.08h-1a.43.43,0,0,1-.3-.08A.4.4,0,0,1,59,11Z"/></g></g></svg>