<svg id="레이어_1" data-name="레이어 1" xmlns="http://www.w3.org/2000/svg" viewBox="0 0 195.1 204.39"><defs><style>.cls-1{fill:#aaa;}</style></defs><path class="cls-1" d="M39.85,100.72q0-24.19,0-48.39c0-9.81,5.59-17.9,14.54-21.2a21.17,21.17,0,0,1,7.38-1.33q33.93,0,67.87,0a21.91,21.91,0,0,1,21.67,19.45,90.51,90.51,0,0,1,.18,9.74c0,3.95,0,7.9,0,11.84a6.3,6.3,0,1,1-12.57,0c0-6.24,0-12.49,0-18.73a9.31,9.31,0,0,0-9.73-9.74h-67c-5.74,0-9.78,4-9.79,9.71q0,48.71,0,97.43a9.43,9.43,0,0,0,9.87,9.79H129c5.88,0,9.91-4,9.91-9.86,0-7.37,0-14.74,0-22.11a6.28,6.28,0,1,1,12.55-.37c.05,8,.21,16,0,23.93a21.85,21.85,0,0,1-19.14,20.75,18.13,18.13,0,0,1-2.21.07H61.32a21.75,21.75,0,0,1-21.27-19.5c-.15-1.6-.2-3.2-.2-4.8Z"/><path class="cls-1" d="M96.59,85.43c4.59,0,9.18,0,13.77,0,1.12,0,1.54-.28,1.5-1.46-.12-3.37-.19-6.75-.18-10.13a4.25,4.25,0,0,1,3.65-4.51,5,5,0,0,1,3.89,1.43l15.14,11.87q9.4,7.38,18.81,14.76c2.72,2.15,2.8,5.1.12,7.22q-17.08,13.5-34.21,26.93a4.07,4.07,0,0,1-4.61.64,4.14,4.14,0,0,1-2.38-4c0-3.47.07-6.93-.14-10.39-.07-1.18-.38-1.57-1.58-1.56-8.88,0-17.76,0-26.64,0-4.08,0-6.17-2.09-6.18-6.15,0-6.2.08-12.39,0-18.59-.06-3.58,2.27-6.3,6.07-6.15C87.92,85.56,92.26,85.43,96.59,85.43Z"/></svg>